<svg width="60" height="60" viewBox="0 0 60 60" fill="none" xmlns="http://www.w3.org/2000/svg">
<path d="M31.1571 19.7571H13.6714C11.8286 19.7571 10.2857 21.2571 10.2857 23.0999V42.1714" stroke="black" stroke-width="1.99286" stroke-linecap="round" stroke-linejoin="round"/>
<path d="M10.2857 42.1714L6.34285 47.1C5.48571 48.1714 5.65714 49.7571 6.72857 50.6142C7.15714 50.9571 7.71428 51.1285 8.27142 51.1285H28.2" stroke="black" stroke-width="1.99286" stroke-linecap="round" stroke-linejoin="round"/>
<path d="M48.3857 48.6427C48.3857 48.0856 48.2143 47.5284 47.8286 47.0999" stroke="black" stroke-width="1.99286" stroke-linecap="round" stroke-linejoin="round"/>
<path d="M31.8429 42.1714H10.3286L6.38573 47.1C6.04287 47.5285 5.82858 48.0857 5.82858 48.6428" stroke="black" stroke-width="1.99286" stroke-linecap="round" stroke-linejoin="round"/>
<path d="M26.0143 51.1286H45.9429C46.5 51.1286 47.0571 50.9571 47.4857 50.6143C48.5571 49.7571 48.7286 48.2143 47.8714 47.1L46.8 45.5571" stroke="black" stroke-width="1.99286" stroke-linecap="round" stroke-linejoin="round"/>
<path d="M26.0143 46.6714H28.2429" stroke="black" stroke-width="1.99286" stroke-linecap="round" stroke-linejoin="round"/>
<path d="M31.1143 32.3143L23.5286 32.2715V24.3H31.1571" stroke="#381ABC" stroke-width="1.99106" stroke-linecap="round" stroke-linejoin="round"/>
<path d="M20.0143 29.1428H18.3857V37.1571H28.5857V35.7" stroke="#381ABC" stroke-width="1.99106" stroke-linecap="round" stroke-linejoin="round"/>
<path d="M44.7428 12.8142C44.9143 12.8142 45.0857 12.9428 45.0857 13.1571C45.0857 13.3285 44.9571 13.4999 44.7428 13.4999C44.5714 13.4999 44.4 13.3714 44.4 13.1571C44.4428 12.9428 44.5714 12.8142 44.7428 12.8142Z" stroke="black" stroke-width="1.99286" stroke-linecap="round" stroke-linejoin="round"/>
<path d="M54.1714 29.6572V39.2572C54.1714 40.8429 52.8857 42.1714 51.2571 42.1714H38.2286C36.6428 42.1714 35.3143 40.8857 35.3143 39.2572V11.7429C35.3143 10.1572 36.6 8.82858 38.2286 8.82858H51.4286C51.4286 8.82858 54.1286 8.74287 54.1286 12V29.6572H54.1714Z" stroke="black" stroke-width="1.99286" stroke-linecap="round" stroke-linejoin="round"/>
<path d="M45.6857 37.9714H43.6714" stroke="black" stroke-width="1.99286" stroke-linecap="round" stroke-linejoin="round"/>
<path d="M47.1 37.9714H43.0286" stroke="black" stroke-width="1.99286" stroke-linecap="round" stroke-linejoin="round"/>
<path d="M39.3857 19.7571H50.2286" stroke="#381ABC" stroke-width="1.99106" stroke-linecap="round" stroke-linejoin="round"/>
<path d="M39.3857 23.7856H50.2286" stroke="black" stroke-width="1.99286" stroke-linecap="round" stroke-linejoin="round"/>
<path d="M39.3857 27.8142H46.9286" stroke="black" stroke-width="1.99286" stroke-linecap="round" stroke-linejoin="round"/>
</svg>
