<svg width="60" height="60" viewBox="0 0 60 60" fill="none" xmlns="http://www.w3.org/2000/svg">
<path d="M26.0143 11.2715C26.2714 11.2715 26.4857 11.4858 26.4857 11.7429C26.4857 12.0001 26.2714 12.2143 26.0143 12.2143C25.7571 12.2143 25.5428 12.0001 25.5428 11.7429C25.5428 11.4429 25.7571 11.2715 26.0143 11.2715Z" stroke="black" stroke-width="1.99106" stroke-linecap="round" stroke-linejoin="round"/>
<path d="M39.4285 36.8142V50.5285C39.4285 52.8 37.5857 54.6428 35.3143 54.6428H16.7143C14.4428 54.6428 12.6 52.8 12.6 50.5285V11.3142C12.6 9.04281 14.4428 7.19995 16.7143 7.19995H32.7857" stroke="black" stroke-width="1.99106" stroke-linecap="round" stroke-linejoin="round"/>
<path d="M39.4286 25.7571C39.7286 25.7571 39.9429 25.9714 39.9429 26.2714C39.9429 26.5714 39.7286 26.7857 39.4286 26.7857C39.1286 26.7857 38.9143 26.5714 38.9143 26.2714C38.9143 26.0142 39.1286 25.7571 39.4286 25.7571Z" stroke="#381ABC" stroke-width="1.99106" stroke-linecap="round" stroke-linejoin="round"/>
<path d="M39.4286 21.6428V15.4285" stroke="#381ABC" stroke-width="1.99106" stroke-linecap="round" stroke-linejoin="round"/>
<path d="M27.3429 50.2285H24.4286" stroke="black" stroke-width="1.99106" stroke-linecap="round" stroke-linejoin="round"/>
<path d="M21.6429 31.9714H24.0857" stroke="black" stroke-width="1.99106" stroke-linecap="round" stroke-linejoin="round"/>
<path d="M21.6429 27.9856H25.5429" stroke="black" stroke-width="1.99106" stroke-linecap="round" stroke-linejoin="round"/>
<path d="M34.6714 36.4714H17.5714V23.7H24.0857" stroke="black" stroke-width="1.99106" stroke-linecap="round" stroke-linejoin="round"/>
<path d="M50.8286 20.6144C50.8286 14.3144 45.7286 9.21436 39.4286 9.21436C33.1286 9.21436 28.0714 14.3572 28.0714 20.6144C28.0714 23.7001 29.3571 26.7001 31.5857 28.8429L28.5 32.0144H39.4286C45.7286 32.0144 50.8286 26.9144 50.8286 20.6144Z" stroke="#381ABC" stroke-width="1.99106" stroke-linecap="round" stroke-linejoin="round"/>
</svg>
