<svg width="60" height="60" viewBox="0 0 60 60" fill="none" xmlns="http://www.w3.org/2000/svg">
<path d="M49.8429 37.9286V15.4286C49.8429 13.2429 48.0857 11.4429 45.8571 11.4429H14.1C11.9143 11.4429 10.1143 13.2 10.1143 15.3857V37.8857" stroke="black" stroke-width="1.99106" stroke-linecap="round" stroke-linejoin="round"/>
<path d="M55.1143 45.5999C55.1143 44.9142 54.9 44.2713 54.4714 43.757L49.8429 37.9285H10.1571L5.52857 43.757C4.5 45.0428 4.71429 46.8856 6 47.8713C6.51429 48.2999 7.15714 48.5142 7.84286 48.5142H31.3286" stroke="black" stroke-width="1.99106" stroke-linecap="round" stroke-linejoin="round"/>
<path d="M28.6714 48.5143H52.1571C53.7857 48.5143 55.0714 47.1857 55.0714 45.5572C55.0714 44.9143 54.8571 44.2715 54.4286 43.7143L49.8 37.8857H10.1571L5.52857 43.7143C5.1 44.2286 4.88571 44.8715 4.88571 45.5572" stroke="black" stroke-width="1.99106" stroke-linecap="round" stroke-linejoin="round"/>
<path d="M28.6714 43.2429H31.3286" stroke="black" stroke-width="1.99106" stroke-linecap="round" stroke-linejoin="round"/>
<path d="M36.3429 24.8999H42.2571" stroke="black" stroke-width="1.99106" stroke-linecap="round" stroke-linejoin="round"/>
<path d="M36.3429 20.9143H44.3571" stroke="black" stroke-width="1.99106" stroke-linecap="round" stroke-linejoin="round"/>
<path d="M36.3429 16.9285H44.3571" stroke="black" stroke-width="1.99106" stroke-linecap="round" stroke-linejoin="round"/>
<path d="M24.9857 20.9143H15V27.8143H24.9857V20.9143Z" stroke="#381ABC" stroke-width="1.99106" stroke-linecap="round" stroke-linejoin="round"/>
<path d="M28.2 25.7144H30V32.6144H20.0143V30.9429" stroke="#381ABC" stroke-width="1.99106" stroke-linecap="round" stroke-linejoin="round"/>
</svg>
