<svg width="60" height="60" viewBox="0 0 60 60" fill="none" xmlns="http://www.w3.org/2000/svg">
<g clip-path="url(#clip0_175_387)">
<path d="M24.1285 50.8715C25.8857 48.5572 26.9143 45.7715 27.1285 42.8572" stroke="black" stroke-width="1.99106" stroke-linecap="round" stroke-linejoin="round"/>
<path d="M36.1286 50.8715C34.3715 48.5572 33.3429 45.7715 33.1286 42.8572" stroke="black" stroke-width="1.99106" stroke-linecap="round" stroke-linejoin="round"/>
<path d="M21.1285 50.8713H39.1285" stroke="black" stroke-width="1.99106" stroke-linecap="round" stroke-linejoin="round"/>
<path d="M7.11426 36.8572H52.8428" stroke="black" stroke-width="1.99106" stroke-linecap="round" stroke-linejoin="round"/>
<path d="M7.11426 9.12866H52.8428V42.8572H7.11426V9.12866Z" stroke="black" stroke-width="1.99106" stroke-linecap="round" stroke-linejoin="round"/>
<path d="M36.1285 24.1287L36.6428 25.8858L38.3571 26.3572L36.6428 26.8715L36.1285 28.6287L35.6143 26.8715L33.8571 26.3572L35.6143 25.8858L36.1285 24.1287Z" stroke="#381ABC" stroke-width="1.99106" stroke-linecap="round" stroke-linejoin="round"/>
<path d="M45.6429 28.3713L45.8572 29.6142L47.3572 29.8713L45.8572 30.3856L45.6429 31.6285L45.1286 30.3856L43.8857 29.8713L45.1286 29.6142L45.6429 28.3713Z" stroke="#381ABC" stroke-width="1.99106" stroke-linecap="round" stroke-linejoin="round"/>
<path d="M12.3857 31.2429H20.6572" stroke="black" stroke-width="1.99106" stroke-linecap="round" stroke-linejoin="round"/>
<path d="M12.3857 27.4714H22.8857" stroke="black" stroke-width="1.99106" stroke-linecap="round" stroke-linejoin="round"/>
<path d="M25.6286 14.6143H12.3857V23.1H25.6286V14.6143Z" stroke="black" stroke-width="1.99106" stroke-linecap="round" stroke-linejoin="round"/>
<path d="M17.8715 22.8857L23.1429 17.6143L25.6286 19.8857" stroke="black" stroke-width="1.99106" stroke-linecap="round" stroke-linejoin="round"/>
<path d="M43.3714 14.6143L44.1428 17.3571L46.6285 17.8714L44.1428 18.6428L43.3714 21.3857L42.6428 18.6428L40.1143 17.8714L42.6428 17.3571L43.3714 14.6143Z" stroke="#381ABC" stroke-width="1.99106" stroke-linecap="round" stroke-linejoin="round"/>
</g>
<defs>
<clipPath id="clip0_175_387">
<rect width="60" height="60" fill="white"/>
</clipPath>
</defs>
</svg>
