<svg width="41" height="40" viewBox="0 0 41 40" fill="none" xmlns="http://www.w3.org/2000/svg">
<g clip-path="url(#clip0_6_1476)">
<g clip-path="url(#clip1_6_1476)">
<path d="M16.9757 39.1657H2.81C2.59126 39.1657 2.37465 39.1226 2.17256 39.0389C1.97047 38.9551 1.78684 38.8325 1.63216 38.6778C1.47749 38.5231 1.35479 38.3395 1.27108 38.1374C1.18737 37.9353 1.14429 37.7187 1.14429 37.4999V2.49994C1.14429 2.05817 1.31978 1.63449 1.63216 1.32211C1.94455 1.00972 2.36823 0.834229 2.81 0.834229H24.9643C25.1834 0.834036 25.4005 0.877093 25.603 0.960931C25.8055 1.04477 25.9894 1.16774 26.1443 1.3228L32.31 7.49994C32.6219 7.81239 32.7976 8.23558 32.7986 8.67709V15.8342" stroke="black" stroke-width="1.66571" stroke-linecap="round" stroke-linejoin="round"/>
<path d="M7.81 23.1828L12.7329 18.2571C12.9688 18.0227 13.2784 17.8767 13.6094 17.8439C13.9404 17.8111 14.2726 17.8935 14.55 18.0771L16.8814 19.6257C17.1614 19.8157 17.4997 19.9002 17.8362 19.8641C18.1726 19.828 18.4853 19.6737 18.7186 19.4286L23.29 14.5714" stroke="black" stroke-width="1.66571" stroke-linecap="round" stroke-linejoin="round"/>
<path d="M7.81 10.8342V27.4999H15.31" stroke="black" stroke-width="1.66571" stroke-linecap="round" stroke-linejoin="round"/>
<path d="M30.0786 38.9115C30.0028 38.9904 29.9123 39.0536 29.8121 39.0975C29.7119 39.1413 29.6041 39.165 29.4947 39.1671C29.3854 39.1693 29.2767 39.1498 29.1749 39.1098C29.0731 39.0699 28.9801 39.0102 28.9014 38.9343L28.8757 38.9115L20.9528 30.6457C20.2049 29.8973 19.7111 28.9327 19.5414 27.8882C19.3717 26.8438 19.5346 25.7725 20.0071 24.8257C20.3648 24.1113 20.8871 23.492 21.5309 23.0189C22.1747 22.5457 22.9216 22.2322 23.7103 22.1042C24.4989 21.9761 25.3067 22.0372 26.0671 22.2824C26.8276 22.5275 27.5189 22.9497 28.0843 23.5143L29.4757 24.9057L30.8814 23.5143C31.4462 22.9486 32.1374 22.5253 32.8981 22.2794C33.6587 22.0335 34.467 21.9721 35.2561 22.1002C36.0451 22.2283 36.7924 22.5423 37.4362 23.0162C38.08 23.4901 38.6018 24.1104 38.9586 24.8257C39.4324 25.7722 39.596 26.8438 39.4263 27.8886C39.2565 28.9333 38.762 29.898 38.0128 30.6457L30.0786 38.9115Z" stroke="#381ABC" stroke-width="1.66571" stroke-linecap="round" stroke-linejoin="round"/>
</g>
</g>
<defs>
<clipPath id="clip0_6_1476">
<rect width="40" height="40" fill="white" transform="translate(0.309998)"/>
</clipPath>
<clipPath id="clip1_6_1476">
<rect width="40" height="40" fill="white" transform="translate(0.309998)"/>
</clipPath>
</defs>
</svg>
