<svg width="41" height="40" viewBox="0 0 41 40" fill="none" xmlns="http://www.w3.org/2000/svg">
<g clip-path="url(#clip0_6_1444)">
<g clip-path="url(#clip1_6_1444)">
<path d="M16.4986 39.156H3.16909C2.95042 39.156 2.73389 39.1129 2.53187 39.0292C2.32985 38.9456 2.14629 38.8229 1.99167 38.6683C1.83705 38.5137 1.7144 38.3301 1.63072 38.1281C1.54704 37.9261 1.50397 37.7095 1.50397 37.4909V2.50338C1.50397 2.06176 1.6794 1.63823 1.99167 1.32596C2.30394 1.01369 2.72747 0.838257 3.16909 0.838257H25.3126C25.5331 0.838546 25.7512 0.882913 25.9543 0.968748C26.1574 1.05458 26.3412 1.18016 26.495 1.33808L32.6586 7.50159C32.9704 7.81393 33.146 8.23696 33.1469 8.67831V14.1649" stroke="black" stroke-width="1.66512" stroke-linecap="round" stroke-linejoin="round"/>
<path d="M6.49646 25.8322H16.4929" stroke="black" stroke-width="1.66512" stroke-linecap="round" stroke-linejoin="round"/>
<path d="M9.00129 17.498H10.6664C10.7759 17.498 10.8844 17.5196 10.9856 17.5615C11.0867 17.6034 11.1787 17.6649 11.2561 17.7423C11.3336 17.8198 11.395 17.9117 11.4369 18.0129C11.4788 18.1141 11.5004 18.2225 11.5004 18.332V25.8294H8.1673V18.332C8.1673 18.1108 8.25516 17.8987 8.41157 17.7423C8.56797 17.5859 8.7801 17.498 9.00129 17.498Z" stroke="black" stroke-width="1.66512" stroke-linecap="round" stroke-linejoin="round"/>
<path d="M18.1637 20.8311V13.3337C18.1637 13.1126 18.0759 12.9004 17.9195 12.744C17.763 12.5876 17.5509 12.4998 17.3297 12.4998H15.6646C15.4434 12.4998 15.2313 12.5876 15.0749 12.744C14.9185 12.9004 14.8306 13.1126 14.8306 13.3337V25.8293" stroke="black" stroke-width="1.66512" stroke-linecap="round" stroke-linejoin="round"/>
<path d="M19.826 29.1653C19.826 31.1424 20.4123 33.0751 21.5107 34.719C22.6091 36.3629 24.1703 37.6441 25.9969 38.4007C27.8236 39.1574 29.8335 39.3553 31.7726 38.9696C33.7117 38.5839 35.4929 37.6318 36.891 36.2338C38.289 34.8358 39.2411 33.0546 39.6268 31.1155C40.0125 29.1763 39.8145 27.1664 39.0579 25.3398C38.3013 23.5132 37.02 21.9519 35.3761 20.8535C33.7322 19.7551 31.7995 19.1688 29.8224 19.1688C27.1712 19.1688 24.6286 20.222 22.7539 22.0967C20.8792 23.9714 19.826 26.514 19.826 29.1653Z" stroke="#381ABC" stroke-width="1.66512" stroke-linecap="round" stroke-linejoin="round"/>
<path d="M29.8253 34.1578V28.3285C29.8257 28.2191 29.8044 28.1107 29.7628 28.0096C29.7212 27.9084 29.6601 27.8164 29.5829 27.7389C29.5056 27.6615 29.4139 27.6 29.3129 27.558C29.2118 27.5161 29.1035 27.4945 28.9941 27.4945H27.3262" stroke="#381ABC" stroke-width="1.66512" stroke-linecap="round" stroke-linejoin="round"/>
<path d="M28.5714 23.3302C28.6539 23.3302 28.7345 23.3547 28.8031 23.4005C28.8717 23.4463 28.9251 23.5114 28.9567 23.5876C28.9883 23.6638 28.9965 23.7477 28.9804 23.8285C28.9643 23.9094 28.9246 23.9837 28.8663 24.0421C28.808 24.1004 28.7337 24.1401 28.6528 24.1562C28.5719 24.1723 28.4881 24.164 28.4119 24.1324C28.3357 24.1009 28.2705 24.0474 28.2247 23.9789C28.1789 23.9103 28.1544 23.8297 28.1544 23.7472C28.1544 23.6366 28.1984 23.5305 28.2766 23.4523C28.3548 23.3741 28.4608 23.3302 28.5714 23.3302Z" stroke="#381ABC" stroke-width="1.66512" stroke-linecap="round" stroke-linejoin="round"/>
<path d="M27.3233 34.1635H32.3215" stroke="#381ABC" stroke-width="1.66512" stroke-linecap="round" stroke-linejoin="round"/>
</g>
</g>
<defs>
<clipPath id="clip0_6_1444">
<rect width="39.98" height="40" fill="white" transform="translate(0.669983)"/>
</clipPath>
<clipPath id="clip1_6_1444">
<rect width="39.98" height="39.9914" fill="white" transform="translate(0.669983 0.00427246)"/>
</clipPath>
</defs>
</svg>
