<svg width="42" height="40" viewBox="0 0 42 40" fill="none" xmlns="http://www.w3.org/2000/svg">
<g clip-path="url(#clip0_6_1464)">
<path d="M1.00037 39.1257H40.9926" stroke="black" stroke-width="1.73776" stroke-linecap="round" stroke-linejoin="round"/>
<path d="M7.94842 39.1258V31.3014C7.94842 31.1871 7.92591 31.0739 7.88217 30.9683C7.83843 30.8627 7.77432 30.7668 7.6935 30.686C7.61267 30.6051 7.51672 30.541 7.41113 30.4973C7.30553 30.4535 7.19235 30.431 7.07805 30.431H3.60254C3.3717 30.431 3.15032 30.5227 2.9871 30.686C2.82387 30.8492 2.73217 31.0706 2.73217 31.3014V39.1258" stroke="black" stroke-width="1.73776" stroke-linecap="round" stroke-linejoin="round"/>
<path d="M18.3809 39.1258V22.6067C18.3809 22.3759 18.2892 22.1545 18.126 21.9913C17.9628 21.828 17.7414 21.7363 17.5105 21.7363H14.035C13.8042 21.7363 13.5828 21.828 13.4196 21.9913C13.2564 22.1545 13.1647 22.3759 13.1647 22.6067V39.1258" stroke="black" stroke-width="1.73776" stroke-linecap="round" stroke-linejoin="round"/>
<path d="M28.8134 39.1258V26.0852C28.8134 25.9709 28.7909 25.8577 28.7472 25.7521C28.7034 25.6465 28.6393 25.5506 28.5585 25.4698C28.4777 25.3889 28.3817 25.3248 28.2761 25.2811C28.1705 25.2374 28.0573 25.2148 27.943 25.2148H24.4675C24.2367 25.2148 24.0153 25.3065 23.8521 25.4698C23.6889 25.633 23.5972 25.8544 23.5972 26.0852V39.1258" stroke="black" stroke-width="1.73776" stroke-linecap="round" stroke-linejoin="round"/>
<path d="M39.2459 39.1258V13.9119C39.2459 13.7978 39.2234 13.6848 39.1796 13.5793C39.1358 13.4739 39.0717 13.3781 38.9908 13.2976C38.91 13.217 38.814 13.1531 38.7084 13.1097C38.6028 13.0663 38.4897 13.0442 38.3756 13.0446H34.9C34.7859 13.0442 34.6728 13.0663 34.5672 13.1097C34.4616 13.1531 34.3656 13.217 34.2848 13.2976C34.2039 13.3781 34.1398 13.4739 34.096 13.5793C34.0522 13.6848 34.0297 13.7978 34.0297 13.9119V39.1258" stroke="black" stroke-width="1.73776" stroke-linecap="round" stroke-linejoin="round"/>
<path d="M37.5082 0.871338L27.7344 11.4022C27.2799 11.8924 26.6938 12.2411 26.0461 12.4066C25.3985 12.572 24.7169 12.5472 24.083 12.3352L17.6179 10.1771C17.0557 9.99028 16.4551 9.94998 15.873 10.06C15.2909 10.1701 14.7465 10.4269 14.2914 10.8061L5.34924 18.2578" stroke="#381ABC" stroke-width="1.73776" stroke-linecap="round" stroke-linejoin="round"/>
<path d="M30.5601 0.871338H37.5141V7.82833" stroke="#381ABC" stroke-width="1.73776" stroke-linecap="round" stroke-linejoin="round"/>
</g>
<defs>
<clipPath id="clip0_6_1464">
<rect width="41.73" height="39.9922" fill="white" transform="translate(0.130005 0.00390625)"/>
</clipPath>
</defs>
</svg>
